<?xml version="1.0" standalone="no"?>
<!DOCTYPE svg PUBLIC "-//W3C//DTD SVG 20010904//EN"
 "http://www.w3.org/TR/2001/REC-SVG-20010904/DTD/svg10.dtd">
<svg version="1.0" xmlns="http://www.w3.org/2000/svg"
 width="630.000000pt" height="630.000000pt" viewBox="0 0 630.000000 630.000000"
 preserveAspectRatio="xMidYMid meet">

<g transform="translate(0.000000,630.000000) scale(0.100000,-0.100000)"
fill="#000000" stroke="none">
<path d="M0 3150 l0 -3150 3150 0 3150 0 0 3150 0 3150 -3150 0 -3150 0 0
-3150z m5410 2060 l0 -90 -2250 0 -2250 0 0 90 0 90 2250 0 2250 0 0 -90z
m-2490 -260 c100 -50 160 -139 167 -250 5 -63 0 -83 -37 -175 -13 -30 -10 -34
312 -466 l325 -435 94 0 c81 1 101 -2 142 -24 27 -13 67 -44 89 -69 l41 -44
146 32 c80 18 176 40 213 48 62 14 67 17 74 46 18 86 80 165 164 208 67 35
186 34 256 -3 263 -138 189 -539 -105 -565 -94 -9 -163 18 -236 90 l-60 60
-100 -22 c-55 -13 -148 -34 -207 -48 l-106 -25 -7 -36 c-16 -84 -83 -172 -162
-212 -67 -35 -187 -35 -253 -1 -61 32 -107 76 -138 136 -23 43 -27 62 -27 135
0 69 4 93 23 128 13 23 19 48 15 55 -4 7 -153 206 -331 444 l-323 432 -64 -6
c-70 -6 -147 13 -198 49 l-28 20 -67 -46 c-37 -26 -154 -108 -261 -184 l-194
-137 -1 -85 c-1 -68 -6 -94 -25 -130 -32 -61 -76 -107 -136 -138 -69 -37 -188
-38 -255 -3 -61 32 -107 76 -138 136 -23 43 -27 62 -27 135 0 73 4 92 27 135
31 60 77 105 138 137 68 35 176 33 257 -6 l61 -29 263 186 264 185 0 79 c1 61
6 88 24 123 40 78 105 133 191 161 44 15 152 4 200 -21z m210 -2375 l0 -1355
145 0 145 0 0 725 0 725 355 0 355 0 0 -725 0 -725 135 0 135 0 0 835 0 835
355 0 355 0 0 -835 0 -835 150 0 150 0 0 -90 0 -90 -2250 0 -2250 0 0 90 0 90
250 0 250 0 0 1060 0 1060 355 0 355 0 0 -1060 0 -1060 150 0 150 0 0 1355 0
1355 355 0 355 0 0 -1355z"/>
<path d="M2745 4791 c-45 -20 -70 -60 -70 -112 0 -42 5 -53 33 -81 28 -28 39
-33 82 -33 43 0 54 5 82 33 28 28 33 39 33 82 0 42 -5 54 -31 81 -33 33 -92
46 -129 30z"/>
<path d="M1735 4111 c-45 -20 -70 -60 -70 -112 0 -42 5 -53 33 -81 28 -28 39
-33 82 -33 43 0 54 5 82 33 28 28 33 39 33 82 0 42 -5 54 -31 81 -33 33 -92
46 -129 30z"/>
<path d="M4725 3661 c-45 -20 -70 -60 -70 -112 0 -42 5 -53 33 -81 28 -28 39
-33 82 -33 43 0 54 5 82 33 28 28 33 39 33 82 0 42 -5 54 -31 81 -33 33 -92
46 -129 30z"/>
<path d="M3745 3441 c-45 -20 -70 -60 -70 -112 0 -42 5 -53 33 -81 28 -28 39
-33 82 -33 43 0 54 5 82 33 28 28 33 39 33 82 0 42 -5 54 -31 81 -33 33 -92
46 -129 30z"/>
</g>
</svg>
